<svg xmlns="http://www.w3.org/2000/svg" version="1.1" xmlns:xlink="http://www.w3.org/1999/xlink" xmlns:svgjs="http://svgjs.com/svgjs" width="1440" height="560" preserveAspectRatio="none" viewBox="0 0 1440 560"><g mask="url(&quot;#SvgjsMask1051&quot;)" fill="none"><rect width="1440" height="560" x="0" y="0" fill="#0e2a47"></rect><path d="M 0,126 C 96,111.4 288,50.2 480,53 C 672,55.8 768,138 960,140 C 1152,142 1344,78.4 1440,63L1440 560L0 560z" fill="rgba(52, 131, 214, 1)"></path><path d="M 0,248 C 57.6,262.4 172.8,320.4 288,320 C 403.2,319.6 460.8,241.4 576,246 C 691.2,250.6 748.8,342.8 864,343 C 979.2,343.2 1036.8,257.8 1152,247 C 1267.2,236.2 1382.4,280.6 1440,289L1440 560L0 560z" fill="#184a7e"></path><path d="M 0,511 C 72,501.4 216,466.4 360,463 C 504,459.6 576,494.8 720,494 C 864,493.2 936,446.4 1080,459 C 1224,471.6 1368,537.4 1440,557L1440 560L0 560z" fill="#2264ab"></path></g><defs><mask id="SvgjsMask1051"><rect width="1440" height="560" fill="#ffffff"></rect></mask></defs></svg>